<?xml version="1.0" encoding="UTF-8"?>
<svg id="Layer_1" data-name="Layer 1" xmlns="http://www.w3.org/2000/svg" viewBox="0 0 1021.56 335.26">
  <defs>
    <style>
      .cls-1 {
        fill: #029CF5;
      }
    </style>
  </defs>
  <g>
    <path class="cls-1" d="M720.8,150.87h-83.82v-16.76c0-9.26-7.51-16.76-16.76-16.76h-16.76v50.29c0,27.77-22.51,50.29-50.29,50.29h-217.92v16.76c0,9.26,7.5,16.76,16.76,16.76h201.15c40.48,0,74.34-28.84,82.13-67.05h85.5c9.26,0,16.76-7.5,16.76-16.76h0c0-9.26-7.5-16.76-16.76-16.76Z"/>
    <path class="cls-1" d="M670.52,217.92h-33.53v33.53h83.81c9.26,0,16.76-7.51,16.76-16.76v-16.76h-67.05Z"/>
    <path class="cls-1" d="M435.83,134.1c0-13.87-5.63-26.44-14.74-35.54-9.11-9.11-21.68-14.75-35.55-14.75h-16.76v33.53h16.76c9.26,0,16.76,7.51,16.76,16.76v16.76h-33.53v-33.53h-33.53v67.05h100.58v-50.29Z"/>
    <path class="cls-1" d="M569.94,134.1v33.53c0,9.26-7.51,16.76-16.77,16.76h-83.81v-33.52h67.05v-16.77c0-9.25-7.5-16.76-16.76-16.76h-33.53v-33.52h33.53c13.87,0,26.44,5.64,35.55,14.75,9.1,9.1,14.74,21.67,14.74,35.53Z"/>
    <path class="cls-1" d="M167.63,150.87h-33.53c-13.87,0-26.44,5.64-35.55,14.75-9.11,9.1-14.74,21.67-14.74,35.54v33.52c0,9.26,7.51,16.76,16.76,16.76h50.29c9.26,0,16.76-7.5,16.76-16.76v-16.76h-50.29v-16.76c0-9.26,7.51-16.76,16.76-16.76h100.58v-33.53h-67.05Z"/>
    <polygon class="cls-1" points="201.15 234.68 201.15 251.45 234.68 251.45 234.68 234.68 234.68 217.92 201.15 217.92 201.15 234.68"/>
    <path class="cls-1" d="M268.21,234.68c0,9.26,7.51,16.76,16.76,16.76h0c9.26,0,16.76-7.5,16.76-16.76v-83.81h-33.53v83.81Z"/>
    <polygon class="cls-1" points="234.68 83.82 201.15 83.82 167.63 83.82 167.63 117.34 201.15 117.34 234.68 117.34 268.21 117.34 301.73 117.34 301.73 83.82 268.21 83.82 234.68 83.82"/>
  </g>
  <path class="cls-1" d="M770.12,100.58V234.68c0,9.26,7.51,16.76,16.76,16.76h134.1c9.26,0,16.76-7.51,16.76-16.76V100.58c0-9.26-7.51-16.76-16.76-16.76h-134.1c-9.26,0-16.76,7.51-16.76,16.76Zm57.22,125.19h-31.54v-31.54h31.54v31.54Zm41.45,0h-31.54v-31.54h31.54v31.54Zm41.45,0h-31.55v-31.54h31.55v31.54Z"/>
</svg>