<?xml version="1.0" encoding="UTF-8"?>
<svg id="Layer_1" data-name="Layer 1" xmlns="http://www.w3.org/2000/svg" viewBox="0 0 822.98 782.41">
  <defs>
    <style>
      .cls-1 {
        fill: #029CF5;
      }
    </style>
  </defs>
  <g>
    <path class="cls-1" d="M721.6,598.01h-83.82v-16.76c0-9.26-7.51-16.76-16.76-16.76h-16.76v50.29c0,27.77-22.51,50.29-50.29,50.29h-217.92v16.76c0,9.26,7.5,16.76,16.76,16.76h201.15c40.48,0,74.34-28.84,82.13-67.05h85.5c9.26,0,16.76-7.5,16.76-16.76h0c0-9.26-7.5-16.76-16.76-16.76Z"/>
    <path class="cls-1" d="M671.31,665.07h-33.53v33.53h83.81c9.26,0,16.76-7.51,16.76-16.76v-16.76h-67.05Z"/>
    <path class="cls-1" d="M436.63,581.25c0-13.87-5.63-26.44-14.74-35.54-9.11-9.11-21.68-14.75-35.55-14.75h-16.76v33.53h16.76c9.26,0,16.76,7.51,16.76,16.76v16.76h-33.53v-33.53h-33.53v67.05h100.58v-50.29Z"/>
    <path class="cls-1" d="M570.74,581.24v33.53c0,9.26-7.51,16.76-16.77,16.76h-83.81v-33.52h67.05v-16.77c0-9.25-7.5-16.76-16.76-16.76h-33.53v-33.52h33.53c13.87,0,26.44,5.64,35.55,14.75,9.1,9.1,14.74,21.67,14.74,35.53Z"/>
    <path class="cls-1" d="M168.43,598.01h-33.53c-13.87,0-26.44,5.64-35.55,14.75-9.11,9.1-14.74,21.67-14.74,35.54v33.52c0,9.26,7.51,16.76,16.76,16.76h50.29c9.26,0,16.76-7.5,16.76-16.76v-16.76h-50.29v-16.76c0-9.26,7.51-16.76,16.76-16.76h100.58v-33.53h-67.05Z"/>
    <polygon class="cls-1" points="201.95 681.83 201.95 698.59 235.48 698.59 235.48 681.83 235.48 665.07 201.95 665.07 201.95 681.83"/>
    <path class="cls-1" d="M269,681.83c0,9.26,7.51,16.76,16.76,16.76h0c9.26,0,16.76-7.5,16.76-16.76v-83.81h-33.53v83.81Z"/>
    <polygon class="cls-1" points="235.48 530.96 201.95 530.96 168.43 530.96 168.43 564.49 201.95 564.49 235.48 564.49 269 564.49 302.53 564.49 302.53 530.96 269 530.96 235.48 530.96"/>
  </g>
  <path class="cls-1" d="M223.32,121.45V422.51c0,20.79,16.85,37.64,37.64,37.64h301.06c20.79,0,37.64-16.85,37.64-37.64V121.45c0-20.79-16.85-37.64-37.64-37.64H260.96c-20.79,0-37.64,16.85-37.64,37.64Zm128.46,281.05h-70.81v-70.81h70.81v70.81Zm93.05,0h-70.81v-70.81h70.81v70.81Zm93.05,0h-70.83v-70.81h70.83v70.81Z"/>
</svg>